<?xml version="1.0" encoding="UTF-8"?>
<svg width="160px" height="40px" viewBox="0 0 160 40" version="1.1" xmlns="http://www.w3.org/2000/svg" xmlns:xlink="http://www.w3.org/1999/xlink">
    <!-- Generator: Sketch 55 (78076) - https://sketchapp.com -->
    <title>logo/long</title>
    <desc>Created with Sketch.</desc>
    <g id="logo/long" stroke="none" stroke-width="1" fill="none" fill-rule="evenodd">
        <g id="logo-new" transform="translate(2.000000, 1.000000)">
            <g id="logo_копия_2">
                <path d="M1.54586355,15.4244813 L5.01538027,11.953973 L11.953973,18.8934471 L5.01493957,25.8324806 L1.54542285,22.3629638 C-0.370249362,20.446744 -0.370052065,17.3404578 1.54586355,15.4244813 L1.54586355,15.4244813 Z" id="Прямоугольник_скругл._углы_8_копия_20" fill="#FF2941"></path>
                <polygon id="Прямоугольник_скругл._углы_8_копия_20-2" fill="#FF6F43" points="5.01538027 25.8324806 11.953973 18.8934471 18.8930064 25.8324806 11.953973 32.7716242"></polygon>
                <polygon id="Прямоугольник_скругл._углы_8_копия_20-3" fill="#D0154C" points="5.01538027 11.953973 8.57039268 8.39885041 11.953973 5.01538027 18.8934471 11.953973 11.953973 18.8934471"></polygon>
                <path d="M11.953973,32.7716242 L18.8930064,25.8324806 L25.8320399,32.7716242 L22.3625231,36.2410307 C21.4423788,37.1612577 20.1943455,37.6782428 18.8930064,37.6782428 C17.5916673,37.6782428 16.3436341,37.1612577 15.4234897,36.2410307 L11.953973,32.7716242 Z" id="Прямоугольник_скругл._углы_8_копия_20-4" fill="#FFB144"></path>
                <polygon id="Прямоугольник_скругл._углы_8_копия_20-5" fill="#FF6F43" points="18.8934471 25.8324806 25.8324806 18.8934471 32.7716242 25.8324806 25.8324806 32.7716242"></polygon>
                <path d="M11.953973,5.01538027 L15.4244813,1.54586355 C16.34464,0.625663527 17.5926679,0.108697066 18.893998,0.108697066 C20.1953282,0.108697066 21.443356,0.625663527 22.3635147,1.54586355 L25.8330314,5.01538027 L18.8934471,11.953973 L11.953973,5.01538027 Z" id="Прямоугольник_скругл._углы_8_копия_20-6" fill="#9E0054"></path>
                <polygon id="Прямоугольник_скругл._углы_8_копия_20-7" fill="#D0154C" points="18.8934471 11.953973 25.8324806 5.01493957 32.7716242 11.953973 25.8324806 18.8930064"></polygon>
                <polygon id="Прямоугольник_скругл._углы_8_копия_22" fill="#FFFFFF" points="22.8867352 15.9477017 25.8324806 18.8934471 18.8934471 25.8324806 18.8934471 25.8324806 15.0946177 29.63131 15.0971518 22.0361852 11.953973 18.8934471 18.8717427 11.976008 22.884091 7.90680946"></polygon>
                <path d="M25.8324806,18.8934471 L32.7716242,11.953973 L36.2411409,15.4244813 C38.157302,17.3406425 38.157302,20.4473535 36.2411409,22.3635147 L32.7716242,25.8330314 L25.8324806,18.8934471 Z" id="Прямоугольник_скругл._углы_8_копия_20-8" fill="#FF2941"></path>
            </g>
            <path d="M49.8047687,27.881072 L51.6992255,27.881072 L51.6992255,12.1206676 L57.882239,12.1206676 L57.882239,10.3315379 L43.5954234,10.3315379 L43.5954234,12.1206676 L49.8047687,12.1206676 L49.8047687,27.881072 Z M63.3813971,28.2757184 C65.1351606,28.2757184 66.4903115,27.8240014 67.4468497,26.9205675 C68.4033879,26.0171336 68.8813632,24.7322743 68.8807756,23.0659897 L68.8807761,14.7524146 L66.9863187,14.7524146 L66.9863187,22.6456726 C66.9863187,23.9789353 66.6925191,24.9568475 66.1049198,25.5794089 C65.5173205,26.2019703 64.6095898,26.5133245 63.3817276,26.5134714 C62.1359437,26.5134714 61.223806,26.2021172 60.6453145,25.5794089 C60.066823,24.9567006 59.7773936,23.9787884 59.7770264,22.6456726 L59.7770264,14.7524146 L57.8823492,14.7524146 L57.8823492,23.0666507 C57.8823492,24.7332292 58.3603245,26.0180885 59.3162751,26.9212286 C60.2722257,27.8243687 61.6273765,28.2760857 63.3817276,28.2763795 L63.3817276,28.2763795 L63.3813971,28.2757184 Z M72.432042,27.881072 L74.3263887,27.881072 L74.3263887,16.7252058 C75.2558973,16.5672885 75.9663049,16.4532575 76.4576113,16.3831128 C76.9894847,16.3103821 77.5258223,16.2752226 78.0626388,16.2778958 C78.484845,16.2779908 78.9066369,16.3043367 79.3255733,16.356781 L79.3255733,14.6728684 C79.0520814,14.5874147 78.7694881,14.5344238 78.4836169,14.5149878 C77.3338604,14.5117228 76.1885411,14.6576746 75.076349,14.9491869 C74.176689,15.1742993 73.293276,15.4599729 72.4321522,15.8042541 L72.4321522,27.881072 L72.432042,27.881072 Z M87.1136142,14.5413196 C86.5417646,14.556076 85.9730612,14.6310415 85.4169213,14.7649745 C84.7945313,14.8984935 84.1831484,15.078962 83.5880185,15.3048314 L83.5880185,9.20114379 L81.6935617,9.20114379 L81.6935617,25.6446324 C81.6935617,27.3988366 83.447619,28.2758653 86.9557336,28.2757184 C88.6220183,28.2757184 90.0603512,27.7538935 91.2707323,26.7102437 C92.4811133,25.6665939 93.0950444,23.8116532 93.1125255,21.1454214 C93.1125255,19.0758967 92.6082184,17.4577584 91.5996042,16.2910066 C90.5909901,15.1242548 89.0956601,14.5410258 87.1136142,14.5413196 L87.1136142,14.5413196 Z M86.692636,26.5393625 C85.954233,26.5537595 85.2179117,26.4561752 84.5087498,26.2499331 C83.8946351,26.0571271 83.587688,25.7063303 83.5879083,25.1975428 L83.5879083,17.1982966 C84.1291604,16.8941808 84.7087885,16.6641008 85.3112636,16.5142209 C85.8998858,16.360769 86.5053303,16.2812348 87.1136142,16.2774551 C88.4817657,16.2774551 89.4903431,16.7115808 90.1393466,17.5798322 C90.78835,18.4480836 91.1128517,19.6364664 91.1128517,21.1449807 C91.1128517,22.8115592 90.8014975,24.1271205 90.1787892,25.0916648 C89.5560808,26.056209 88.3940298,26.5385546 86.692636,26.5387015 L86.692636,26.5387015 L86.692636,26.5393625 Z M101.400981,28.2759388 C103.312515,28.2759388 104.794734,27.6663045 105.847638,26.447036 C106.900543,25.2277674 107.426444,23.5306705 107.425342,21.3557452 C107.425342,19.2336304 106.925516,17.562902 105.925862,16.34356 C104.926209,15.1242181 103.400287,14.5145838 101.348097,14.5146572 C99.4013069,14.5146572 97.9146807,15.089109 96.8882182,16.2380125 C95.8617557,17.386916 95.348708,19.0927535 95.3490753,21.3555249 C95.3490753,23.5834076 95.8533089,25.293652 96.8617762,26.4862582 C97.8702435,27.6788644 99.3833116,28.275241 101.400981,28.2753879 L101.400981,28.2753879 L101.400981,28.2759388 Z M101.374539,26.5393625 C98.6201671,26.5393625 97.2429812,24.8116003 97.2429812,21.3560757 C97.2429812,17.9533617 98.6201671,16.2519313 101.374539,16.2517844 C102.847577,16.2517844 103.908561,16.6902803 104.557491,17.5672723 C105.206421,18.4442642 105.531069,19.7071987 105.531436,21.3560757 C105.531436,24.8118941 104.145804,26.5396563 101.374539,26.5393625 L101.374539,26.5393625 Z M112.213542,27.8812924 L112.213542,9.75267917 L110.319636,9.75267917 L110.319636,27.881072 L112.213542,27.881072 L112.213542,27.8812924 Z M121.159741,28.2759388 C123.071275,28.2759388 124.553494,27.6663045 125.606399,26.447036 C126.659303,25.2277674 127.185572,23.5306705 127.185205,21.3557452 C127.185205,19.2336304 126.685011,17.562902 125.684623,16.34356 C124.685337,15.1242915 123.159415,14.5146572 121.106857,14.5146572 C119.160067,14.5146572 117.673441,15.089109 116.646979,16.2380125 C115.620516,17.386916 115.107469,19.0927535 115.107836,21.3555249 C115.107836,23.5834076 115.612069,25.293652 116.620537,26.4862582 C117.629004,27.6788644 119.142072,28.275241 121.159741,28.2753879 L121.159741,28.2753879 L121.159741,28.2759388 Z M121.133299,26.5393625 C118.378928,26.5393625 117.002109,24.8116003 117.002844,21.3560757 C117.002844,17.9533617 118.379662,16.2519313 121.133299,16.2517844 C122.606337,16.2517844 123.667688,16.6902803 124.317353,17.5672723 C124.965181,18.4446315 125.289462,19.7075659 125.290197,21.3560757 C125.290197,24.8118941 123.904564,26.5396563 121.133299,26.5393625 L121.133299,26.5393625 Z M135.8141,14.5413196 C134.02486,14.5413196 132.516566,15.0587742 131.289218,16.0936834 C130.060769,17.1288865 129.437913,18.9881975 129.420653,21.6716166 C129.420653,23.741582 129.924886,25.3597202 130.933354,26.5260313 C131.941821,27.6923425 133.437261,28.2755715 135.419674,28.2757184 C135.991883,28.2609054 136.560945,28.1859413 137.117469,28.0520634 C137.739482,27.9184772 138.350494,27.7380096 138.94527,27.5122066 L138.94527,28.4858219 C138.94527,29.3100033 138.673505,29.9853018 138.129976,30.5117173 C137.586447,31.0381328 136.516281,31.3012304 134.91948,31.3010101 C134.341279,31.3059895 133.764029,31.2531364 133.196345,31.1432396 C132.678524,31.0379125 132.077703,30.8888092 131.393885,30.6959297 L131.393885,32.4850593 C131.499652,32.5023935 131.740935,32.5593907 132.117733,32.6560507 C132.494531,32.7527108 132.941841,32.8491873 133.459663,32.9454801 C134.010799,33.044831 134.569903,33.0932917 135.129914,33.0902499 C137.252617,33.0902499 138.734836,32.6385329 139.576572,31.735099 C140.41941,30.8316651 140.840645,29.7309815 140.840278,28.4330481 L140.840278,17.8042584 C140.840278,16.6992045 140.353305,15.879173 139.379359,15.3441638 C138.406515,14.8093016 137.218095,14.541797 135.8141,14.5416501 L135.8141,14.5416501 L135.8141,14.5413196 Z M131.419886,21.6713962 C131.419886,20.0052584 131.740127,18.6896971 132.380611,17.7247122 C133.021094,16.7597272 134.218327,16.2773817 135.972311,16.2776755 C136.88309,16.2776755 137.606572,16.4048173 138.142756,16.6591008 C138.677104,16.9136048 138.944462,17.3828395 138.944829,18.0668051 L138.944829,25.6180803 C138.403769,25.9224361 137.824181,26.1525298 137.221694,26.302156 C136.633043,26.4556496 136.027557,26.5351845 135.419233,26.5389218 C134.050862,26.5389218 133.042394,26.1047961 132.393832,25.2365447 C131.745269,24.3682933 131.42062,23.1799105 131.419886,21.6713962 L131.419886,21.6713962 L131.419886,21.6713962 Z M149.784934,28.2754981 C151.696468,28.2754981 153.178687,27.6658638 154.231592,26.4465953 C155.284496,25.2273267 155.810765,23.5302298 155.810398,21.3553045 C155.810398,19.2331897 155.310571,17.5624613 154.310918,16.3431193 C153.311265,15.1237774 151.784975,14.5141431 149.73205,14.5142165 C147.78526,14.5142165 146.298634,15.0886683 145.272172,16.2375718 C144.245709,17.3864753 143.732662,19.0923128 143.733029,21.3550842 C143.733029,23.5829669 144.237263,25.2932113 145.24573,26.4858175 C146.254197,27.6784237 147.767265,28.2748003 149.784934,28.2749472 L149.784934,28.2749472 L149.784934,28.2754981 Z M149.758492,26.5389218 C147.004121,26.5389218 145.627302,24.8111596 145.628037,21.355635 C145.628037,17.952921 147.004855,16.2514906 149.758492,16.2513437 C151.23153,16.2513437 152.292882,16.6898396 152.942546,17.5668316 C153.59221,18.4438235 153.916492,19.706758 153.91539,21.355635 C153.91539,24.8114534 152.529757,26.5392156 149.758492,26.5389218 L149.758492,26.5389218 Z" id="Turbologo_копия" fill="#202020"></path>
        </g>
    </g>
</svg>